<?xml version="1.0" standalone="no"?>
<!DOCTYPE svg PUBLIC "-//W3C//DTD SVG 20010904//EN"
 "http://www.w3.org/TR/2001/REC-SVG-20010904/DTD/svg10.dtd">
<svg version="1.0" xmlns="http://www.w3.org/2000/svg"
 width="531.000000pt" height="531.000000pt" viewBox="0 0 531.000000 531.000000"
 preserveAspectRatio="xMidYMid meet">
<metadata>
Created by potrace 1.14, written by Peter Selinger 2001-2017
</metadata>
<g transform="translate(0.000000,531.000000) scale(0.100000,-0.100000)"
fill="#000000" stroke="none">
<path d="M2538 5245 c-2 -1 -41 -6 -88 -9 -264 -22 -524 -89 -778 -203 -285
-126 -518 -287 -737 -507 -273 -274 -467 -584 -590 -946 -46 -132 -88 -306
-101 -415 -4 -27 -8 -52 -9 -55 -9 -16 -19 -195 -19 -335 1 -166 9 -284 29
-385 3 -13 7 -42 11 -64 3 -22 7 -43 9 -47 2 -3 7 -19 9 -35 26 -140 115 -391
187 -530 207 -397 533 -676 946 -813 208 -69 330 -87 583 -85 196 2 350 27
523 86 437 148 786 458 973 864 41 87 104 258 104 279 0 8 -21 -9 -47 -37
-143 -154 -292 -254 -482 -322 -89 -32 -135 -43 -261 -62 -37 -5 -230 -5 -265
1 -258 43 -427 116 -600 258 -122 99 -240 247 -308 382 -35 71 -84 213 -96
282 -6 32 -14 72 -17 88 -14 70 -8 262 11 370 63 352 324 686 657 840 69 31
212 78 277 90 33 6 168 19 201 19 120 1 367 -40 394 -65 6 -5 16 -9 23 -9 26
0 171 -75 253 -131 85 -58 164 -128 229 -204 l35 -40 709 0 c520 0 711 3 714
11 11 29 -131 355 -229 529 -25 43 -99 157 -108 165 -3 3 -30 39 -62 81 -283
381 -745 702 -1214 844 -63 19 -124 37 -136 39 -149 32 -222 46 -268 51 -30 4
-71 9 -90 12 -38 5 -367 12 -372 8z"/>
<path d="M3825 1900 c-132 -520 -465 -945 -897 -1144 -76 -36 -230 -91 -278
-100 -14 -2 -32 -7 -40 -10 -82 -31 -481 -53 -640 -35 -41 5 -99 11 -129 14
-30 3 -64 8 -75 10 -12 3 -32 7 -46 9 -22 4 -161 33 -200 41 -232 53 -485 167
-768 344 -45 28 -82 49 -82 47 0 -2 25 -36 56 -76 216 -280 437 -454 817 -642
228 -113 558 -225 742 -252 22 -4 65 -11 95 -16 174 -30 527 -33 660 -5 14 3
42 8 63 10 31 4 99 19 177 40 124 32 324 114 455 187 425 237 809 643 1113
1173 85 148 243 456 237 463 -1 2 -282 4 -623 5 l-620 2 -17 -65z"/>
</g>
</svg>
