<?xml version="1.0" standalone="no"?>
<!DOCTYPE svg PUBLIC "-//W3C//DTD SVG 20010904//EN"
 "http://www.w3.org/TR/2001/REC-SVG-20010904/DTD/svg10.dtd">
<svg version="1.0" xmlns="http://www.w3.org/2000/svg"
 width="532.000000pt" height="532.000000pt" viewBox="0 0 532.000000 532.000000"
 preserveAspectRatio="xMidYMid meet">
<metadata>
Created by potrace 1.14, written by Peter Selinger 2001-2017
</metadata>
<g transform="translate(0.000000,532.000000) scale(0.100000,-0.100000)"
fill="#000000" stroke="none">
<path d="M2459 5316 c-2 -2 -34 -6 -71 -10 -37 -3 -124 -17 -195 -31 -501
-100 -928 -329 -1294 -694 -196 -197 -326 -371 -449 -604 -143 -270 -227 -535
-276 -862 -9 -66 -13 -485 -4 -565 73 -676 350 -1185 815 -1497 130 -87 369
-194 490 -219 6 -1 37 -9 70 -17 118 -30 231 -42 405 -42 129 0 285 11 301 21
3 2 19 5 35 8 16 3 43 7 59 10 32 6 162 45 235 71 79 28 243 110 320 160 265
170 477 411 613 695 43 90 96 230 111 294 7 28 5 27 -29 -15 -180 -218 -474
-376 -770 -414 -56 -7 -248 -8 -281 -1 -12 2 -37 7 -55 10 -82 14 -98 18 -174
42 -218 71 -438 222 -566 391 -24 32 -46 60 -49 63 -44 43 -154 278 -176 375
-43 188 -50 388 -20 535 45 211 125 379 263 549 29 36 123 129 158 156 224
176 469 267 725 269 135 1 226 -8 323 -34 231 -61 396 -157 568 -330 l97 -98
730 0 730 0 -15 52 c-28 95 -94 250 -159 376 -325 623 -885 1079 -1560 1270
-219 62 -372 82 -650 86 -138 2 -253 2 -255 0z"/>
<path d="M3883 1947 c-2 -4 -15 -48 -29 -97 -109 -410 -372 -796 -689 -1011
-53 -36 -53 -36 -155 -92 -108 -59 -311 -131 -425 -152 -152 -27 -260 -37
-395 -38 -103 -1 -323 14 -393 27 -18 3 -50 8 -72 11 -22 4 -56 10 -75 15 -19
5 -51 11 -70 14 -72 12 -258 65 -350 101 -150 59 -377 177 -523 271 -37 24
-70 44 -73 44 -4 0 15 -31 48 -75 35 -47 155 -180 212 -236 209 -201 481 -370
827 -512 164 -67 439 -150 569 -171 19 -4 80 -13 135 -22 131 -21 429 -25 565
-9 867 108 1555 690 2093 1768 43 88 76 162 72 165 -9 9 -1266 8 -1272 -1z"/>
</g>
</svg>
